<?xml version="1.0" encoding="utf-8"?>
<!-- Generator: Adobe Illustrator 16.0.3, SVG Export Plug-In . SVG Version: 6.00 Build 0)  -->
<!DOCTYPE svg PUBLIC "-//W3C//DTD SVG 1.1//EN" "http://www.w3.org/Graphics/SVG/1.1/DTD/svg11.dtd">
<svg version="1.1" id="Layer_1" xmlns="http://www.w3.org/2000/svg" xmlns:xlink="http://www.w3.org/1999/xlink" x="0px" y="0px"
	 width="60px" height="60px" viewBox="0 0 60 60" enable-background="new 0 0 60 60">
<path fill="#231F20" d="M59.139,24.325l-11.973-8.714l2.463-2.885c0.266-0.312,0.381-0.726,0.316-1.131
	c-0.066-0.404-0.309-0.76-0.66-0.971l-7.043-4.229c-0.59-0.354-1.352-0.226-1.791,0.304l-2.086,2.506l-2.77-2.017
	c-0.875-0.635-2.088-0.503-2.803,0.309L21.264,20.584c-0.686,0.778-0.697,1.941-0.029,2.734l1.52,1.8
	c-1.438,1.471-3.816,3.885-4.865,4.838c-3.775,3.43-17.242,14.457-17.377,14.567c-0.307,0.25-0.49,0.617-0.51,1.011
	s0.127,0.777,0.406,1.056l6.803,6.804c0.271,0.271,0.629,0.409,0.986,0.409c0.324,0,0.648-0.112,0.91-0.338
	C9.59,53.05,20.939,43.279,24.232,40.221c1.359-1.263,4.461-4.404,6.125-6.101l8.791,10.408c0.379,0.448,0.926,0.716,1.512,0.741
	c0.029,0.001,0.059,0.002,0.088,0.002c0.553,0,1.086-0.221,1.479-0.613l17.16-17.16c0.432-0.433,0.654-1.033,0.607-1.644
	C59.945,25.244,59.633,24.686,59.139,24.325z M41.83,9.404l4.605,2.765l-1.533,1.795l-4.275-3.112L41.83,9.404z M34.674,11.696
	l12.604,9.173L35.076,33.22l-9.479-11.224L34.674,11.696z M22.332,38.176c-2.695,2.505-11.168,9.83-14.064,12.328l-4.797-4.798
	c3.416-2.805,13.094-10.777,16.293-13.685c1.066-0.967,3.33-3.26,4.799-4.762l3.986,4.72C26.951,33.606,23.686,36.921,22.332,38.176
	z M40.877,40.089l-4.445-5.264l12.557-12.71l5.707,4.154L40.877,40.089z"/>
</svg>
