<?xml version="1.0" encoding="utf-8"?>
<!-- Generator: Adobe Illustrator 16.0.3, SVG Export Plug-In . SVG Version: 6.00 Build 0)  -->
<!DOCTYPE svg PUBLIC "-//W3C//DTD SVG 1.1//EN" "http://www.w3.org/Graphics/SVG/1.1/DTD/svg11.dtd">
<svg version="1.1" id="Layer_1" xmlns="http://www.w3.org/2000/svg" xmlns:xlink="http://www.w3.org/1999/xlink" x="0px" y="0px"
	 width="60px" height="60px" viewBox="0 0 60 60" enable-background="new 0 0 60 60" xml:space="preserve">
<g>
	<path fill="#231F20" d="M57.431,51.818c-0.119-0.181-0.311-0.301-0.525-0.33c-0.917-0.125-1.608-0.917-1.608-1.842
		c0-0.924,0.691-1.716,1.608-1.841c0.215-0.029,0.406-0.149,0.525-0.331c0.119-0.181,0.153-0.404,0.096-0.612
		c-0.467-1.672-1.357-3.214-2.576-4.457c-0.15-0.155-0.364-0.238-0.578-0.224c-0.217,0.012-0.416,0.118-0.549,0.289
		c-0.545,0.705-1.614,0.923-2.396,0.471c-0.802-0.463-1.141-1.458-0.789-2.314c0.082-0.2,0.073-0.427-0.023-0.62
		c-0.098-0.193-0.273-0.336-0.484-0.39c-1.672-0.429-3.47-0.431-5.146-0.002c-0.21,0.054-0.387,0.196-0.483,0.39
		c-0.098,0.193-0.106,0.42-0.023,0.62c0.35,0.856,0.01,1.852-0.793,2.314c-0.78,0.45-1.85,0.232-2.396-0.473
		c-0.133-0.172-0.333-0.277-0.549-0.289c-0.218-0.014-0.427,0.068-0.578,0.224c-1.22,1.244-2.111,2.787-2.578,4.461
		c-0.059,0.208-0.023,0.432,0.095,0.612c0.119,0.182,0.311,0.302,0.525,0.331c0.916,0.125,1.607,0.917,1.607,1.841
		c0,0.925-0.691,1.717-1.607,1.842c-0.215,0.029-0.406,0.149-0.524,0.33c-0.119,0.182-0.154,0.404-0.096,0.613
		c0.467,1.673,1.357,3.215,2.575,4.457c0.151,0.154,0.36,0.238,0.578,0.224c0.216-0.013,0.416-0.118,0.549-0.289
		c0.547-0.705,1.615-0.922,2.397-0.471c0.801,0.463,1.14,1.458,0.789,2.314c-0.083,0.2-0.074,0.427,0.022,0.62
		s0.274,0.336,0.483,0.39C45.815,59.892,46.683,60,47.555,60c0.867,0,1.731-0.108,2.569-0.321c0.21-0.054,0.387-0.195,0.484-0.389
		c0.097-0.193,0.105-0.421,0.023-0.621c-0.351-0.856-0.011-1.852,0.791-2.314c0.783-0.452,1.851-0.233,2.398,0.473
		c0.133,0.171,0.332,0.276,0.548,0.288c0.224,0.018,0.428-0.068,0.578-0.223c1.222-1.247,2.112-2.789,2.579-4.462
		C57.584,52.223,57.55,52,57.431,51.818z M54.376,55.291c-1.04-0.783-2.553-0.896-3.701-0.234c-1.188,0.685-1.814,2.015-1.652,3.324
		c-0.971,0.162-1.975,0.162-2.941-0.001c0.162-1.309-0.463-2.639-1.649-3.324c-1.15-0.664-2.663-0.551-3.702,0.231
		c-0.629-0.761-1.129-1.625-1.474-2.549c1.214-0.516,2.052-1.723,2.052-3.092c0-1.368-0.838-2.576-2.052-3.091
		c0.346-0.925,0.847-1.79,1.477-2.553c1.04,0.784,2.554,0.896,3.7,0.233c1.188-0.685,1.814-2.015,1.654-3.324
		c0.97-0.161,1.973-0.161,2.941,0.001c-0.164,1.31,0.463,2.64,1.649,3.325c1.149,0.663,2.662,0.552,3.701-0.231
		c0.63,0.762,1.129,1.625,1.474,2.549c-1.215,0.515-2.053,1.723-2.053,3.091c0,1.369,0.839,2.576,2.053,3.092
		C55.507,53.662,55.007,54.527,54.376,55.291z"/>
	<path fill="#231F20" d="M47.555,45.246c-2.427,0-4.4,1.974-4.4,4.4s1.974,4.4,4.4,4.4s4.399-1.974,4.399-4.4
		S49.981,45.246,47.555,45.246z M47.555,53.049c-1.876,0-3.401-1.526-3.401-3.402s1.525-3.402,3.401-3.402s3.401,1.526,3.401,3.402
		S49.431,53.049,47.555,53.049z"/>
	<path fill="#231F20" d="M14.806,33.364c2.981,2.777,6.416,4.237,10,4.237s7.018-1.46,10-4.238c1.951,1.496,3.666,3.401,5.107,5.678
		c0.443,0.698,1.368,0.906,2.066,0.464c0.699-0.443,0.907-1.368,0.465-2.067c-1.906-3.009-4.248-5.455-6.963-7.273
		c-0.607-0.406-1.42-0.315-1.922,0.218c-2.609,2.764-5.637,4.225-8.754,4.225c-3.119,0-6.146-1.461-8.753-4.225
		c-0.502-0.532-1.315-0.624-1.923-0.218C6.962,34.963,2.485,44.194,2.446,54.256c-0.002,0.398,0.156,0.781,0.437,1.063
		c0.281,0.282,0.663,0.44,1.062,0.44h30.156c0.828,0,1.498-0.67,1.498-1.498c0-0.827-0.67-1.497-1.498-1.497H5.483
		C5.9,44.758,9.373,37.528,14.806,33.364z"/>
	<path fill="#231F20" d="M9.288,25.468c0.42,0.305,1.847,1.322,2.574,1.625c1.55,0.646,3.221,1.076,5.09,1.31
		c1.72,2.359,4.696,3.798,7.959,3.798c3.328,0,6.422-1.55,8.105-4.007c1.517-0.238,2.9-0.593,4.213-1.079
		c0.809-0.302,2.619-1.359,2.975-1.569c0.379-0.224,0.641-0.604,0.715-1.037c0.074-0.435-0.047-0.88-0.33-1.218
		c-0.731-0.868-1.625-2.078-1.791-2.497c-0.418-1.055-0.598-4.837-0.592-7.189C38.206,6.103,32.09,0,24.572,0
		C17.056,0,10.94,6.103,10.94,13.604c0,0.021,0,0.043,0.002,0.064c0.096,2.247,0.081,5.883-0.252,6.931
		c-0.134,0.42-1.004,1.773-1.732,2.774c-0.234,0.322-0.332,0.724-0.27,1.116C8.751,24.883,8.967,25.234,9.288,25.468z
		 M26.313,29.078c-0.455,0.083-0.925,0.127-1.402,0.127c-0.695,0-1.374-0.096-2.017-0.271c-3.185-1.178-5.541-5.207-5.541-9.997
		c0-1.29,0.173-2.546,0.515-3.746c1.074,0.656,2.238,1.203,3.471,1.631c1.892,0.656,3.805,0.988,5.684,0.988
		c1.865,0,3.6-0.334,5.078-0.972c0.104,0.691,0.156,1.394,0.156,2.099C32.257,23.93,29.701,28.107,26.313,29.078z M13.544,21.507
		c0.608-1.909,0.438-6.867,0.393-7.934c0.017-5.835,4.781-10.578,10.636-10.578c5.865,0,10.638,4.759,10.638,10.604
		c-0.002,1.04,0.024,6.329,0.803,8.294c0.217,0.548,0.697,1.272,1.172,1.917c-0.43,0.231-0.807,0.423-0.998,0.494
		c-1.171,0.435-2.428,0.742-3.814,0.949c0.873-1.83,1.382-3.996,1.382-6.317c0-1.14-0.124-2.273-0.368-3.37
		c-0.051-0.231-0.209-0.425-0.426-0.521c-0.216-0.096-0.465-0.084-0.673,0.032c-1.433,0.808-3.253,1.235-5.265,1.235
		c-1.713,0-3.46-0.305-5.193-0.906c-1.43-0.497-2.758-1.167-3.943-1.991c-0.191-0.133-0.433-0.169-0.654-0.099
		c-0.221,0.07-0.396,0.239-0.477,0.457c-0.597,1.633-0.898,3.37-0.898,5.164c0,2.396,0.54,4.625,1.467,6.491
		c-1.609-0.199-2.992-0.553-4.31-1.102c-0.122-0.052-0.406-0.223-0.759-0.452C12.774,23.088,13.343,22.144,13.544,21.507z"/>
</g>
</svg>
