<?xml version="1.0" encoding="utf-8"?>
<!-- Generator: Adobe Illustrator 16.0.3, SVG Export Plug-In . SVG Version: 6.00 Build 0)  -->
<!DOCTYPE svg PUBLIC "-//W3C//DTD SVG 1.1//EN" "http://www.w3.org/Graphics/SVG/1.1/DTD/svg11.dtd">
<svg version="1.1" id="Layer_1" xmlns="http://www.w3.org/2000/svg" xmlns:xlink="http://www.w3.org/1999/xlink" x="0px" y="0px"
	 width="60px" height="60px" viewBox="0 0 60 60" enable-background="new 0 0 60 60" xml:space="preserve">
<g>
	<path fill="#231F20" d="M55.467,57.464l-5.977-5.977c0.599-1.06,0.945-2.279,0.945-3.581c0-4.028-3.276-7.305-7.305-7.305
		c-4.027,0-7.304,3.276-7.304,7.305c0,4.027,3.276,7.304,7.304,7.304c1.651,0,3.17-0.557,4.395-1.483l5.84,5.839
		c0.29,0.29,0.671,0.435,1.051,0.435s0.761-0.145,1.051-0.435C56.047,58.984,56.047,58.043,55.467,57.464z M38.799,47.906
		c0-2.389,1.944-4.332,4.332-4.332c2.389,0,4.332,1.943,4.332,4.332c0,2.388-1.943,4.331-4.332,4.331
		C40.743,52.237,38.799,50.294,38.799,47.906z"/>
	<path fill="#231F20" d="M35.275,52.728H7.112c0.412-7.944,3.857-15.119,9.249-19.251c2.958,2.756,6.366,4.205,9.922,4.205
		s6.963-1.449,9.922-4.204c2.038,1.568,3.86,3.633,5.315,6.03c0.427,0.702,1.341,0.926,2.042,0.5
		c0.702-0.426,0.925-1.34,0.499-2.042c-1.908-3.145-4.393-5.795-7.185-7.664c-0.604-0.403-1.409-0.313-1.907,0.215
		c-2.589,2.743-5.592,4.192-8.687,4.192s-6.098-1.449-8.685-4.192c-0.498-0.528-1.307-0.618-1.908-0.215
		C8.578,35.064,4.136,44.225,4.098,54.207c-0.001,0.396,0.154,0.775,0.434,1.055c0.278,0.28,0.657,0.438,1.053,0.438h29.691
		c0.821,0,1.486-0.665,1.486-1.486C36.762,53.393,36.097,52.728,35.275,52.728z"/>
	<path fill="#231F20" d="M15.005,22.561c2.064,6.191,6.31,9.889,11.357,9.889c5.1,0,9.362-3.748,11.401-10.028
		c0.121-0.373,0.305-0.638,0.558-1.005c0.801-1.159,1.464-2.35,1.464-5.19C39.785,5.078,32.827,0,26.362,0
		c-6.76,0-13.581,5.018-13.581,16.226c0,3.073,0.892,4.298,1.607,5.282C14.672,21.896,14.877,22.179,15.005,22.561z M36.812,16.226
		c0,2.145-0.435,2.773-0.937,3.501c-0.32,0.464-0.684,0.99-0.939,1.776c-1.621,4.993-4.827,7.975-8.574,7.975
		c-3.706,0-6.897-2.938-8.538-7.857c-0.272-0.818-0.676-1.373-1.032-1.862c-0.557-0.766-1.039-1.427-1.039-3.532
		c0-0.707,0.036-1.381,0.098-2.028c0.148,0.049,0.296,0.098,0.43,0.144c0.655,0.222,1.222,0.413,1.639,0.413
		c0.643,0,0.86-0.438,0.911-0.572c0.222-0.576,0.239-1.188,0.254-1.729c0.03-1.036,0.09-1.389,0.685-1.594
		c0.46-0.158,0.871-0.236,1.257-0.236c0.852,0,1.479,0.39,2.206,0.841c0.832,0.515,1.774,1.1,3.134,1.1
		c1.429,0,2.438-0.524,3.329-0.987c0.789-0.41,1.471-0.764,2.385-0.764c0.297,0,0.603,0.036,0.934,0.111
		c0.454,0.103,0.557,0.363,0.612,1.547c0.025,0.559,0.053,1.136,0.257,1.662c0.051,0.134,0.268,0.568,0.895,0.568
		c0.408,0,0.951-0.198,1.579-0.429c0.108-0.039,0.231-0.083,0.357-0.128C36.776,14.808,36.812,15.499,36.812,16.226z M26.362,2.973
		c4.466,0,8.963,3.023,10.147,9.671c-0.216,0.072-0.437,0.15-0.665,0.233c-0.203,0.074-0.465,0.17-0.685,0.241
		c-0.028-0.225-0.04-0.473-0.051-0.717c-0.048-1.017-0.118-2.554-1.769-2.927c-0.434-0.099-0.857-0.148-1.262-0.148
		c-1.277,0-2.188,0.474-3.07,0.932c-0.812,0.422-1.578,0.819-2.644,0.819c-0.937,0-1.591-0.406-2.351-0.876
		c-0.803-0.499-1.714-1.063-2.989-1.063c-0.554,0-1.124,0.104-1.741,0.317c-1.616,0.558-1.656,1.944-1.686,2.956
		c-0.008,0.272-0.015,0.537-0.047,0.778c-0.247-0.071-0.558-0.177-0.795-0.257c-0.243-0.082-0.478-0.159-0.706-0.229
		C17.237,6.015,21.815,2.973,26.362,2.973z"/>
</g>
</svg>
