<?xml version="1.0" encoding="utf-8"?>
<!-- Generator: Adobe Illustrator 16.0.3, SVG Export Plug-In . SVG Version: 6.00 Build 0)  -->
<!DOCTYPE svg PUBLIC "-//W3C//DTD SVG 1.1//EN" "http://www.w3.org/Graphics/SVG/1.1/DTD/svg11.dtd">
<svg version="1.1" id="Layer_1" xmlns="http://www.w3.org/2000/svg" xmlns:xlink="http://www.w3.org/1999/xlink" x="0px" y="0px"
	 width="60px" height="60px" viewBox="0 0 60 60" enable-background="new 0 0 60 60" xml:space="preserve">
<path fill="#231F20" d="M52.109,24.336H36.535V7.891C36.535,6.846,35.689,6,34.645,6h-9.291c-1.044,0-1.891,0.846-1.891,1.891
	v16.445H7.891C6.846,24.336,6,25.182,6,26.227v9.291c0,1.044,0.846,1.891,1.891,1.891h15.572v14.701
	c0,1.045,0.847,1.891,1.891,1.891h9.291c1.045,0,1.891-0.846,1.891-1.891V37.408h15.574c1.045,0,1.891-0.847,1.891-1.891v-9.291
	C54,25.182,53.154,24.336,52.109,24.336z M50.22,33.627H34.645c-1.044,0-1.89,0.847-1.89,1.891V50.22h-5.511V35.518
	c0-1.044-0.846-1.891-1.891-1.891H9.78v-5.51h15.573c1.045,0,1.891-0.846,1.891-1.891V9.781h5.511v16.445
	c0,1.045,0.846,1.891,1.89,1.891H50.22V33.627z"/>
</svg>
