<?xml version="1.0" encoding="utf-8"?>
<!-- Generator: Adobe Illustrator 16.0.3, SVG Export Plug-In . SVG Version: 6.00 Build 0)  -->
<!DOCTYPE svg PUBLIC "-//W3C//DTD SVG 1.1//EN" "http://www.w3.org/Graphics/SVG/1.1/DTD/svg11.dtd">
<svg version="1.1" id="Layer_1" xmlns="http://www.w3.org/2000/svg" xmlns:xlink="http://www.w3.org/1999/xlink" x="0px" y="0px"
	 width="60px" height="60px" viewBox="0 0 60 60" enable-background="new 0 0 60 60" xml:space="preserve">
<g>
	<path fill="#231F20" d="M59.566,34.797l-4.637-4.635c-0.578-0.578-1.515-0.578-2.093,0L39.382,43.617
		c-0.032,0.033-0.056,0.07-0.085,0.104c-0.024,0.029-0.05,0.059-0.072,0.09c-0.06,0.084-0.11,0.172-0.15,0.264
		c-0.003,0.008-0.009,0.014-0.012,0.02l-0.004,0.01c0,0.002-0.002,0.006-0.004,0.008l-3.307,7.934
		c-0.23,0.553-0.104,1.191,0.32,1.615c0.283,0.283,0.661,0.434,1.047,0.434c0.191,0,0.385-0.037,0.568-0.115l7.933-3.307
		c0.003,0,0.006-0.002,0.009-0.004l0.008-0.002c0.008-0.004,0.014-0.01,0.021-0.012c0.092-0.041,0.181-0.092,0.264-0.15
		c0.032-0.023,0.06-0.049,0.089-0.072c0.035-0.029,0.072-0.053,0.104-0.086l13.457-13.455C59.844,36.613,60,36.236,60,35.844
		S59.844,35.074,59.566,34.797z M39.864,49.863l1.08-2.59l1.511,1.51L39.864,49.863z M45.063,47.207l-2.542-2.543l11.361-11.363
		l2.544,2.543L45.063,47.207z"/>
	<path fill="#231F20" d="M34.408,45.998H7.03v-29.2h46.583v10.409c0,0.816,0.663,1.479,1.48,1.479s1.48-0.662,1.48-1.479V16.405
		c0-1.415-1.152-2.566-2.566-2.566h-1.506v-2.106c0-1.415-1.15-2.566-2.564-2.566H18.92l-2.938-2.843
		c-0.276-0.267-0.646-0.417-1.029-0.417H2.566C1.151,5.907,0,7.058,0,8.474v34.55c0,3.975,2.309,5.826,3.87,5.826
		c0.446,0,0.841-0.201,1.112-0.512c0.448,0.381,1.021,0.621,1.654,0.621h27.771c0.818,0,1.48-0.664,1.48-1.48
		C35.889,46.66,35.227,45.998,34.408,45.998z M4.07,16.405v29.501C4.061,45.904,4.052,45.9,4.042,45.9
		c-0.179-0.104-1.082-0.732-1.082-2.877V8.867h11.394l2.938,2.843c0.276,0.268,0.645,0.417,1.028,0.417h31.223v1.712H6.637
		C5.222,13.838,4.07,14.99,4.07,16.405z"/>
</g>
</svg>
