<?xml version="1.0" encoding="utf-8"?>
<!-- Generator: Adobe Illustrator 16.0.3, SVG Export Plug-In . SVG Version: 6.00 Build 0)  -->
<!DOCTYPE svg PUBLIC "-//W3C//DTD SVG 1.1//EN" "http://www.w3.org/Graphics/SVG/1.1/DTD/svg11.dtd">
<svg version="1.1" id="Layer_1" xmlns="http://www.w3.org/2000/svg" xmlns:xlink="http://www.w3.org/1999/xlink" x="0px" y="0px"
	 width="60px" height="60px" viewBox="0 0 60 60" enable-background="new 0 0 60 60" xml:space="preserve">
<path fill="#231F20" d="M59.997,21.099c-0.001-0.066-0.011-0.133-0.02-0.198c-0.006-0.045-0.008-0.091-0.018-0.134
	c-0.012-0.058-0.033-0.112-0.052-0.167c-0.016-0.049-0.027-0.099-0.048-0.145c-0.021-0.048-0.049-0.092-0.073-0.137
	c-0.028-0.051-0.053-0.104-0.086-0.15c-0.025-0.037-0.058-0.069-0.085-0.104c-0.043-0.053-0.084-0.104-0.133-0.151
	c-0.006-0.006-0.01-0.013-0.017-0.019L47.58,8.751c-0.027-0.026-0.06-0.044-0.088-0.067c-0.051-0.041-0.1-0.083-0.155-0.118
	c-0.044-0.029-0.091-0.051-0.138-0.075c-0.051-0.025-0.1-0.053-0.152-0.074c-0.054-0.021-0.109-0.035-0.165-0.051
	c-0.049-0.014-0.098-0.029-0.149-0.039c-0.064-0.012-0.131-0.016-0.196-0.02c-0.037-0.003-0.071-0.012-0.108-0.012H6.811
	c-0.932,0-1.686,0.755-1.686,1.687v3.438H1.686C0.755,13.419,0,14.174,0,15.105v34.913c0,0.932,0.755,1.687,1.686,1.687h51.504
	c0.932,0,1.686-0.755,1.686-1.687V46.58h3.439c0.931,0,1.686-0.754,1.686-1.686V21.124C60,21.115,59.997,21.107,59.997,21.099z
	 M48.113,13.872l5.938,5.566h-5.938V13.872z M51.504,48.333H3.372V16.791h1.753v28.104c0,0.932,0.754,1.686,1.686,1.686h44.693
	V48.333z M8.496,43.209V11.667h36.246v9.457c0,0.932,0.754,1.686,1.686,1.686h10.201v20.399H8.496z"/>
</svg>
