<?xml version="1.0" encoding="utf-8"?>
<!-- Generator: Adobe Illustrator 16.0.3, SVG Export Plug-In . SVG Version: 6.00 Build 0)  -->
<!DOCTYPE svg PUBLIC "-//W3C//DTD SVG 1.1//EN" "http://www.w3.org/Graphics/SVG/1.1/DTD/svg11.dtd">
<svg version="1.1" id="Layer_1" xmlns="http://www.w3.org/2000/svg" xmlns:xlink="http://www.w3.org/1999/xlink" x="0px" y="0px"
	 width="60px" height="60px" viewBox="0 0 60 60" enable-background="new 0 0 60 60" xml:space="preserve">
<g>
	<path fill="#231F20" d="M58.648,1.371c-1.443-1.425-3.184-1.772-4.143-0.82L49.791,5.27l-0.257-0.257
		c-0.383-0.383-0.902-0.598-1.443-0.598c-0.542,0-1.061,0.215-1.443,0.597L5.741,45.912c-0.383,0.383-0.599,0.902-0.599,1.443
		c0,0.363,0.104,0.713,0.284,1.021l-4.764,8.361c-0.129,0.225-0.152,0.482-0.099,0.725c-0.05,0.035-0.106,0.055-0.151,0.1
		c-0.551,0.551-0.553,1.451,0.004,2.01c0.275,0.275,0.638,0.412,1,0.412c0.363,0,0.727-0.139,1.002-0.414
		c0.037-0.037,0.055-0.086,0.084-0.127c0.091,0.025,0.182,0.055,0.275,0.055c0.173,0,0.348-0.045,0.505-0.135l8.363-4.77
		c0.315,0.184,0.667,0.283,1.021,0.283c0.522,0,1.044-0.199,1.442-0.598l40.9-40.901c0.798-0.797,0.798-2.088,0.001-2.885
		l-0.259-0.259l4.72-4.72C60.416,4.571,60.063,2.792,58.648,1.371z M2.95,57.203l-0.129-0.129l4.063-7.133l3.197,3.195L2.95,57.203z
		 M12.667,49.951l-2.597-2.596L48.09,9.341l2.593,2.594L12.667,49.951z M53.311,8.79l-2.077-2.077l4.65-4.655
		c0.188,0.005,0.73,0.171,1.324,0.759c0.588,0.59,0.752,1.132,0.757,1.32L53.311,8.79z"/>
	<path fill="#231F20" d="M28.267,19.993c0.522,0,1.045-0.199,1.443-0.598L42.405,6.696c0.797-0.797,0.797-2.089,0-2.886
		s-2.09-0.797-2.886,0L26.824,16.509c-0.798,0.797-0.798,2.089,0,2.886C27.223,19.793,27.745,19.993,28.267,19.993z"/>
</g>
</svg>
