<?xml version="1.0" encoding="utf-8"?>
<!-- Generator: Adobe Illustrator 16.0.3, SVG Export Plug-In . SVG Version: 6.00 Build 0)  -->
<!DOCTYPE svg PUBLIC "-//W3C//DTD SVG 1.1//EN" "http://www.w3.org/Graphics/SVG/1.1/DTD/svg11.dtd">
<svg version="1.1" id="Layer_1" xmlns="http://www.w3.org/2000/svg" xmlns:xlink="http://www.w3.org/1999/xlink" x="0px" y="0px"
	 width="60px" height="60px" viewBox="0 0 60 60" enable-background="new 0 0 60 60" xml:space="preserve">
<g>
	<path fill="#231F20" d="M11.008,24.796c0.029,0.03,0.062,0.051,0.094,0.078c0.037,0.031,0.074,0.063,0.113,0.092
		c0.055,0.039,0.113,0.071,0.172,0.103c0.039,0.021,0.075,0.043,0.115,0.061c0.068,0.03,0.141,0.052,0.212,0.07
		c0.033,0.01,0.064,0.022,0.098,0.029c0.106,0.022,0.214,0.034,0.323,0.034l0,0l0,0c0.098,0,0.193-0.01,0.289-0.027
		c0.029-0.006,0.057-0.016,0.086-0.022c0.065-0.017,0.131-0.033,0.193-0.058c0.035-0.014,0.069-0.031,0.104-0.047
		c0.055-0.025,0.109-0.053,0.161-0.085c0.036-0.022,0.069-0.047,0.104-0.072c0.028-0.021,0.058-0.036,0.085-0.059L25.67,14.438
		c0.676-0.564,0.766-1.569,0.201-2.244c-0.563-0.676-1.569-0.766-2.245-0.201l-11.396,9.52l-2.762-2.763
		c-0.622-0.622-1.632-0.622-2.254,0c-0.623,0.622-0.623,1.632,0,2.254L11.008,24.796z"/>
	<path fill="#231F20" d="M11.008,48.844c0.029,0.03,0.062,0.051,0.094,0.077c0.037,0.032,0.074,0.064,0.113,0.093
		c0.055,0.039,0.113,0.071,0.172,0.103c0.039,0.021,0.075,0.043,0.115,0.061c0.068,0.03,0.141,0.051,0.212,0.07
		c0.033,0.01,0.064,0.022,0.098,0.029c0.106,0.022,0.214,0.034,0.323,0.034l0,0l0,0c0.098,0,0.193-0.01,0.289-0.027
		c0.029-0.006,0.057-0.016,0.086-0.022c0.065-0.017,0.131-0.033,0.193-0.058c0.035-0.014,0.069-0.031,0.104-0.048
		c0.055-0.025,0.109-0.052,0.161-0.084c0.036-0.022,0.069-0.047,0.104-0.072c0.028-0.021,0.058-0.036,0.085-0.059L25.67,38.485
		c0.676-0.564,0.766-1.57,0.201-2.245c-0.563-0.675-1.569-0.767-2.245-0.201L12.23,45.56l-2.762-2.763
		c-0.622-0.623-1.632-0.623-2.254,0c-0.623,0.622-0.623,1.631,0,2.254L11.008,48.844z"/>
	<path fill="#231F20" d="M58.406,0H1.594C0.713,0,0,0.714,0,1.594v56.812C0,59.286,0.713,60,1.594,60h56.812
		C59.287,60,60,59.286,60,58.406V1.594C60,0.714,59.287,0,58.406,0z M56.812,56.812H3.188V3.188h53.625V56.812z"/>
	<path fill="#231F20" d="M24.701,24.081c0,0.881,0.713,1.594,1.594,1.594h24.701c0.881,0,1.594-0.713,1.594-1.594
		c0-0.88-0.713-1.594-1.594-1.594H26.295C25.414,22.487,24.701,23.201,24.701,24.081z"/>
	<path fill="#231F20" d="M50.996,45.307H26.295c-0.881,0-1.594,0.714-1.594,1.594c0,0.881,0.713,1.594,1.594,1.594h24.701
		c0.881,0,1.594-0.713,1.594-1.594C52.59,46.021,51.877,45.307,50.996,45.307z"/>
</g>
</svg>
