<?xml version="1.0" encoding="utf-8"?>
<!-- Generator: Adobe Illustrator 16.0.3, SVG Export Plug-In . SVG Version: 6.00 Build 0)  -->
<!DOCTYPE svg PUBLIC "-//W3C//DTD SVG 1.1//EN" "http://www.w3.org/Graphics/SVG/1.1/DTD/svg11.dtd">
<svg version="1.1" id="Layer_1" xmlns="http://www.w3.org/2000/svg" xmlns:xlink="http://www.w3.org/1999/xlink" x="0px" y="0px"
	 width="60px" height="60px" viewBox="0 0 60 60" enable-background="new 0 0 60 60" xml:space="preserve">
<g>
	<path fill="#231F20" d="M51.656,31.258c0,0.83,0.673,1.504,1.504,1.504c0.83,0,1.503-0.674,1.503-1.504V8.761
		c0-0.596-0.353-1.137-0.898-1.376L37.258,0.127c-0.021-0.009-0.043-0.011-0.062-0.019c-0.059-0.023-0.118-0.038-0.179-0.053
		s-0.12-0.03-0.182-0.038c-0.06-0.008-0.119-0.008-0.18-0.008c-0.063,0-0.125,0-0.188,0.008c-0.059,0.007-0.117,0.022-0.176,0.037
		c-0.062,0.015-0.123,0.031-0.184,0.054c-0.02,0.008-0.041,0.01-0.061,0.019L20.146,7.118L4.243,0.127
		C3.779-0.077,3.242-0.034,2.816,0.244C2.391,0.521,2.135,0.996,2.135,1.503v41.41c0,0.597,0.353,1.137,0.898,1.376l16.507,7.259
		c0.011,0.005,0.022,0.006,0.033,0.011c0.073,0.03,0.149,0.054,0.227,0.072c0.024,0.006,0.048,0.012,0.073,0.016
		c0.09,0.018,0.181,0.028,0.272,0.028s0.183-0.011,0.272-0.028c0.025-0.004,0.049-0.01,0.073-0.016
		c0.078-0.019,0.153-0.042,0.228-0.072c0.01-0.005,0.021-0.006,0.032-0.011l16.485-7.249c0.001,0,0.003-0.001,0.004-0.002
		l0.018-0.008c0.077-0.033,0.148-0.074,0.218-0.119c0.02-0.013,0.037-0.027,0.057-0.042c0.053-0.038,0.104-0.079,0.15-0.124
		c0.02-0.019,0.038-0.037,0.057-0.056c0.049-0.052,0.093-0.105,0.134-0.163c0.011-0.014,0.022-0.026,0.031-0.041
		c0.047-0.07,0.087-0.146,0.121-0.224c0.012-0.023,0.02-0.048,0.028-0.072c0.023-0.061,0.042-0.121,0.058-0.185
		c0.006-0.027,0.013-0.054,0.018-0.081c0.016-0.088,0.027-0.178,0.027-0.27V3.807l13.5,5.936V31.258z M5.142,3.807l13.5,5.936
		v38.126l-13.5-5.937V3.807z M21.649,9.742l13.499-5.936v38.125l-13.499,5.937V9.742z"/>
	<path fill="#231F20" d="M48.678,34.365c-5.066,0-9.188,4.122-9.188,9.189c0,4.595,7.151,14.684,7.967,15.818
		C47.739,59.767,48.193,60,48.678,60s0.938-0.233,1.221-0.627c0.815-1.135,7.967-11.224,7.967-15.818
		C57.865,38.487,53.744,34.365,48.678,34.365z M48.678,55.862c-2.772-4.106-6.182-9.935-6.182-12.308
		c0-3.408,2.773-6.182,6.182-6.182s6.181,2.773,6.181,6.182C54.858,45.926,51.449,51.755,48.678,55.862z"/>
	<path fill="#231F20" d="M48.678,40.668c-1.71,0-3.101,1.391-3.101,3.099c0,1.71,1.391,3.101,3.101,3.101
		c1.709,0,3.1-1.391,3.1-3.101C51.777,42.059,50.387,40.668,48.678,40.668z M48.678,45.363c-0.881,0-1.597-0.716-1.597-1.597
		c0-0.88,0.716-1.596,1.597-1.596c0.88,0,1.596,0.716,1.596,1.596C50.273,44.647,49.558,45.363,48.678,45.363z"/>
</g>
</svg>
