<?xml version="1.0" encoding="utf-8"?>
<!-- Generator: Adobe Illustrator 16.0.3, SVG Export Plug-In . SVG Version: 6.00 Build 0)  -->
<!DOCTYPE svg PUBLIC "-//W3C//DTD SVG 1.1//EN" "http://www.w3.org/Graphics/SVG/1.1/DTD/svg11.dtd">
<svg class="svg-mtMission" ng-class="{'svg-mtMission--hasMission' : todo.hasMission, 'svg-mtMission--Main' : !todo }" version="1.1" id="Layer_1" xmlns="http://www.w3.org/2000/svg" xmlns:xlink="http://www.w3.org/1999/xlink" x="0px" y="0px"
	 width="60px" height="60px" viewBox="0 0 60 60" enable-background="new 0 0 60 60" xml:space="preserve">
<path fill="#231F20" d="M59.449,40.01L42.235,22.795c-0.565-0.566-1.566-0.566-2.132,0l-5.073,5.073L24.922,17.76
	c-0.589-0.589-1.543-0.589-2.132,0L0.441,40.108c-0.431,0.431-0.561,1.08-0.326,1.643c0.232,0.563,0.782,0.931,1.393,0.931h22.349
	h0.722h33.904c0.004,0,0.008,0.001,0.01,0c0.833,0,1.508-0.675,1.508-1.508C60,40.705,59.786,40.286,59.449,40.01z M41.169,25.993
	l2.311,2.312l-1.297,1.032l-1.627-1.627c-0.295-0.295-0.771-0.295-1.066,0l-1.308,1.308l-0.019-0.019L41.169,25.993z M23.856,20.958
	l5.618,5.618l-1.306,1.306l-1.098-1.098c-0.141-0.142-0.332-0.221-0.532-0.221s-0.392,0.079-0.533,0.221l-1.765,1.764l-2.795-2.795
	c-0.283-0.283-0.783-0.283-1.066,0l-1.906,1.906L17.814,27L23.856,20.958z M16.748,28.065l1.192,1.193
	c0.283,0.282,0.784,0.282,1.066,0l1.906-1.907l2.795,2.795c0.147,0.147,0.341,0.222,0.533,0.222c0.193,0,0.386-0.074,0.533-0.222
	l1.765-1.764l1.097,1.098c0.142,0.142,0.334,0.222,0.533,0.222c0.2,0,0.392-0.08,0.533-0.222l1.838-1.838L32.898,30l-9.667,9.667
	H5.147L16.748,28.065z M27.496,39.667l9.602-9.602l0.551,0.551c0.142,0.142,0.333,0.221,0.533,0.221s0.392-0.079,0.533-0.221
	l1.308-1.308l1.57,1.57c0.146,0.146,0.34,0.221,0.533,0.221c0.166,0,0.332-0.054,0.47-0.164l1.957-1.559l10.29,10.29H27.496z"/>
</svg>
