<?xml version="1.0" encoding="utf-8"?>
<!-- Generator: Adobe Illustrator 16.0.3, SVG Export Plug-In . SVG Version: 6.00 Build 0)  -->
<!DOCTYPE svg PUBLIC "-//W3C//DTD SVG 1.1//EN" "http://www.w3.org/Graphics/SVG/1.1/DTD/svg11.dtd">
<svg version="1.1" id="Layer_1" xmlns="http://www.w3.org/2000/svg" xmlns:xlink="http://www.w3.org/1999/xlink" x="0px" y="0px"
	 width="60px" height="60px" viewBox="0 0 60 60" enable-background="new 0 0 60 60" xml:space="preserve">
<g>
	<path fill="#231F20" d="M57.5,30c0-15.163-12.336-27.5-27.499-27.5S2.5,14.837,2.5,30c0,7.801,3.27,14.848,8.505,19.857
		c0.087,0.108,0.187,0.207,0.304,0.289c4.91,4.559,11.479,7.354,18.692,7.354c7.325,0,13.985-2.885,18.92-7.571
		c0.118-0.083,0.218-0.182,0.306-0.292C54.326,44.642,57.5,37.686,57.5,30z M5.467,30c0-13.527,11.006-24.533,24.534-24.533
		c13.527,0,24.532,11.006,24.532,24.533c0,6.193-2.312,11.854-6.112,16.177c-1.971-3.507-4.577-6.408-7.634-8.454
		c-0.602-0.402-1.407-0.312-1.905,0.215c-2.583,2.738-5.58,4.186-8.667,4.186h-0.102c-3.089,0-6.087-1.447-8.67-4.186
		c-0.498-0.527-1.303-0.617-1.905-0.215c-3.124,2.091-5.778,5.067-7.763,8.679C7.856,42.053,5.467,36.301,5.467,30z M13.991,48.566
		c1.59-3.128,3.71-5.751,6.218-7.674c2.953,2.751,6.354,4.198,9.904,4.198h0.102c3.549,0,6.949-1.447,9.902-4.198
		c2.454,1.882,4.539,4.438,6.119,7.478c-4.33,3.83-10.014,6.162-16.235,6.162C23.887,54.532,18.292,52.279,13.991,48.566z"/>
	<path fill="#231F20" d="M14.742,33.07c0.416,0.303,1.83,1.311,2.551,1.61c1.535,0.64,3.19,1.065,5.04,1.298
		c1.704,2.338,4.653,3.762,7.884,3.762c3.296,0,6.361-1.536,8.029-3.969c1.501-0.235,2.872-0.588,4.174-1.07
		c0.802-0.298,2.595-1.346,2.945-1.554c0.377-0.221,0.636-0.598,0.709-1.028c0.074-0.431-0.046-0.871-0.327-1.205
		c-0.724-0.858-1.609-2.058-1.774-2.474c-0.413-1.045-0.593-4.791-0.587-7.121c0-7.429-6.058-13.474-13.502-13.474
		c-7.446,0-13.505,6.045-13.505,13.474c0,0.021,0.001,0.042,0.002,0.063c0.096,2.226,0.081,5.826-0.249,6.864
		c-0.133,0.416-0.995,1.758-1.717,2.749c-0.233,0.319-0.329,0.717-0.267,1.105C14.21,32.491,14.424,32.84,14.742,33.07z
		 M31.606,36.647c-0.45,0.083-0.915,0.126-1.39,0.126c-0.688,0-1.359-0.096-1.994-0.269c-3.155-1.164-5.49-5.157-5.49-9.902
		c0-1.276,0.172-2.52,0.509-3.709c1.067,0.65,2.22,1.191,3.438,1.613c1.874,0.65,3.769,0.979,5.631,0.979
		c1.848,0,3.564-0.331,5.027-0.962c0.103,0.684,0.154,1.379,0.154,2.078C37.492,31.547,34.963,35.686,31.606,36.647z M18.959,29.147
		c0.602-1.891,0.432-6.802,0.388-7.858c0.017-5.779,4.737-10.477,10.537-10.477c5.809,0,10.535,4.713,10.535,10.503
		c-0.003,1.03,0.024,6.27,0.795,8.217c0.215,0.543,0.69,1.26,1.161,1.898c-0.426,0.229-0.8,0.419-0.988,0.489
		c-1.162,0.431-2.408,0.736-3.78,0.941c0.866-1.813,1.37-3.959,1.37-6.259c0-1.13-0.123-2.253-0.366-3.339
		c-0.051-0.229-0.206-0.421-0.422-0.516c-0.214-0.096-0.461-0.084-0.665,0.031c-1.418,0.801-3.221,1.224-5.213,1.224
		c-1.696,0-3.428-0.302-5.145-0.897c-1.414-0.49-2.729-1.153-3.908-1.972c-0.19-0.132-0.43-0.167-0.648-0.098
		s-0.393,0.237-0.472,0.453c-0.59,1.619-0.888,3.339-0.888,5.113c0,2.368,0.533,4.573,1.447,6.42
		c-1.576-0.199-2.982-0.547-4.265-1.081c-0.12-0.051-0.402-0.221-0.752-0.448C18.194,30.714,18.758,29.779,18.959,29.147z"/>
</g>
</svg>
