<?xml version="1.0" encoding="utf-8"?>
<!-- Generator: Adobe Illustrator 16.0.3, SVG Export Plug-In . SVG Version: 6.00 Build 0)  -->
<!DOCTYPE svg PUBLIC "-//W3C//DTD SVG 1.1//EN" "http://www.w3.org/Graphics/SVG/1.1/DTD/svg11.dtd">
<svg class="svg svg__menu sub-menu__svg" version="1.1" id="Layer_1" xmlns="http://www.w3.org/2000/svg" xmlns:xlink="http://www.w3.org/1999/xlink" x="0px" y="0px"
	 width="60px" height="60px" viewBox="0 0 60 60" enable-background="new 0 0 60 60" xml:space="preserve">
<g>
	<path fill="#231F20" d="M57.5,29.999C57.5,14.837,45.163,2.5,30.001,2.5C14.838,2.5,2.5,14.837,2.5,29.999
		c0,7.84,3.303,14.918,8.584,19.932c0.085,0.107,0.183,0.203,0.297,0.284c4.902,4.519,11.443,7.285,18.62,7.285
		c7.288,0,13.916-2.854,18.843-7.498c0.117-0.083,0.219-0.182,0.305-0.291C54.293,44.71,57.5,37.725,57.5,29.999z M5.468,29.999
		c0-13.526,11.006-24.531,24.533-24.531s24.531,11.005,24.531,24.531c0,6.24-2.345,11.939-6.195,16.274
		c-1.962-3.442-4.54-6.293-7.55-8.308c-0.603-0.404-1.407-0.312-1.905,0.215c-2.581,2.737-5.579,4.185-8.667,4.185h-0.102
		c-3.09,0-6.088-1.447-8.67-4.185c-0.497-0.527-1.303-0.619-1.904-0.215c-3.08,2.061-5.702,4.99-7.679,8.533
		C7.891,42.138,5.468,36.347,5.468,29.999z M14.076,48.64c1.581-3.052,3.672-5.616,6.133-7.505c2.953,2.751,6.354,4.197,9.904,4.197
		h0.102c3.55,0,6.95-1.446,9.902-4.197c2.406,1.847,4.462,4.344,6.031,7.311c-4.318,3.786-9.967,6.087-16.147,6.087
		C23.927,54.532,18.366,52.309,14.076,48.64z"/>
	<path fill="#231F20" d="M18.854,30.239c2.061,6.181,6.298,9.872,11.336,9.872c5.09,0,9.345-3.742,11.382-10.011
		c0.121-0.372,0.303-0.637,0.556-1.003c0.8-1.157,1.462-2.347,1.462-5.183c0-11.127-6.945-16.195-13.399-16.195
		c-6.748,0-13.557,5.008-13.557,16.195c0,3.069,0.89,4.292,1.605,5.273C18.521,29.578,18.727,29.858,18.854,30.239z M40.622,23.915
		c0,2.143-0.433,2.77-0.936,3.497c-0.319,0.462-0.681,0.986-0.937,1.771c-1.619,4.984-4.819,7.96-8.56,7.96
		c-3.698,0-6.885-2.932-8.521-7.844c-0.272-0.817-0.677-1.369-1.031-1.857c-0.557-0.765-1.037-1.424-1.037-3.527
		c0-0.705,0.035-1.377,0.097-2.023c0.149,0.048,0.297,0.098,0.432,0.143c0.653,0.222,1.219,0.413,1.634,0.413l0,0
		c0.642,0,0.859-0.438,0.909-0.571c0.222-0.576,0.239-1.186,0.254-1.725c0.03-1.035,0.09-1.387,0.683-1.591
		c0.459-0.158,0.87-0.236,1.255-0.236c0.851,0,1.478,0.389,2.203,0.839c0.83,0.515,1.77,1.098,3.126,1.098
		c1.427,0,2.435-0.524,3.324-0.986c0.787-0.408,1.467-0.763,2.38-0.763c0.297,0,0.602,0.037,0.932,0.111
		c0.454,0.103,0.557,0.362,0.611,1.545c0.026,0.557,0.053,1.134,0.258,1.661c0.051,0.133,0.268,0.565,0.893,0.565
		c0.407,0,0.949-0.198,1.577-0.427c0.107-0.04,0.23-0.084,0.354-0.129C40.586,22.501,40.622,23.19,40.622,23.915z M30.19,10.688
		c4.457,0,8.946,3.019,10.129,9.653c-0.215,0.072-0.435,0.149-0.662,0.232c-0.203,0.074-0.466,0.171-0.685,0.241
		c-0.028-0.224-0.04-0.472-0.051-0.715c-0.047-1.016-0.118-2.55-1.767-2.923c-0.433-0.099-0.855-0.148-1.259-0.148
		c-1.274,0-2.185,0.473-3.064,0.93c-0.81,0.421-1.575,0.819-2.64,0.819c-0.934,0-1.587-0.405-2.344-0.875
		c-0.803-0.497-1.712-1.062-2.985-1.062c-0.553,0-1.121,0.104-1.738,0.316c-1.612,0.557-1.652,1.94-1.682,2.951
		c-0.009,0.271-0.016,0.536-0.048,0.775c-0.246-0.07-0.555-0.174-0.79-0.255c-0.244-0.082-0.479-0.159-0.708-0.229
		C21.081,13.723,25.652,10.688,30.19,10.688z"/>
</g>
</svg>
