<?xml version="1.0" encoding="utf-8"?>
<!-- Generator: Adobe Illustrator 16.0.3, SVG Export Plug-In . SVG Version: 6.00 Build 0)  -->
<!DOCTYPE svg PUBLIC "-//W3C//DTD SVG 1.1//EN" "http://www.w3.org/Graphics/SVG/1.1/DTD/svg11.dtd">
<svg version="1.1" id="Layer_1" xmlns="http://www.w3.org/2000/svg" xmlns:xlink="http://www.w3.org/1999/xlink" x="0px" y="0px"
	 width="60px" height="60px" viewBox="0 0 60 60" enable-background="new 0 0 60 60" xml:space="preserve">
<g>
	<path fill="#231F20" d="M30,0C18.637,0,9.035,9.839,9.035,21.484c0,11.039,18.695,36.681,19.49,37.768
		C28.869,59.722,29.418,60,30,60c0.584,0,1.133-0.278,1.477-0.748c0.795-1.087,19.488-26.729,19.488-37.768
		C50.965,9.839,41.365,0,30,0z M30,55.034c-5.924-8.393-17.305-26.061-17.305-33.55c0-9.662,7.924-17.826,17.305-17.826
		s17.305,8.164,17.305,17.826C47.305,28.974,35.926,46.642,30,55.034z"/>
	<path fill="#231F20" d="M31.293,20.584l6.012-6.012c0.357-0.357,0.357-0.937,0-1.294c-0.355-0.357-0.936-0.357-1.293,0L30,19.29
		l-6.227-6.227c-0.357-0.357-0.936-0.357-1.293,0s-0.357,0.937,0,1.293l6.227,6.228l-6.012,6.012c-0.357,0.357-0.357,0.937,0,1.293
		c0.18,0.179,0.412,0.269,0.646,0.269s0.469-0.09,0.646-0.269L30,21.877l6.227,6.227c0.178,0.179,0.412,0.268,0.646,0.268
		s0.469-0.089,0.646-0.268c0.357-0.357,0.357-0.937,0-1.294L31.293,20.584z"/>
</g>
</svg>
