<?xml version="1.0" encoding="utf-8"?>
<!-- Generator: Adobe Illustrator 16.0.3, SVG Export Plug-In . SVG Version: 6.00 Build 0)  -->
<!DOCTYPE svg PUBLIC "-//W3C//DTD SVG 1.1//EN" "http://www.w3.org/Graphics/SVG/1.1/DTD/svg11.dtd">
<svg class="svg svg__menu" version="1.1" id="Layer_1" xmlns="http://www.w3.org/2000/svg" xmlns:xlink="http://www.w3.org/1999/xlink" x="0px" y="0px"
	 width="60px" height="60px" viewBox="0 0 60 60" enable-background="new 0 0 60 60" xml:space="preserve">
<g>
	<path fill="#231F20" d="M52.577,3.738H42.418V1.685C42.418,0.754,41.664,0,40.732,0H19.633c-0.931,0-1.686,0.754-1.686,1.685v2.054
		H7.418c-0.931,0-1.685,0.754-1.685,1.686v51.039c0,2.115,1.9,3.537,3.675,3.537h40.81c0.586,0,2.061-0.118,3.095-1.209
		c0.468-0.494,1.01-1.368,0.95-2.738V5.424C54.263,4.492,53.509,3.738,52.577,3.738z M19.633,14.037h21.099
		c0.932,0,1.686-0.754,1.686-1.686v-1.877h3.024v39.832H14.369V10.475h3.579v1.877C17.948,13.283,18.703,14.037,19.633,14.037z
		 M39.048,3.37v7.296H21.318V5.435c0-0.004,0.001-0.007,0.001-0.011s-0.001-0.007-0.001-0.011V3.37H39.048z M50.867,56.472
		c-0.039,0.046-0.281,0.157-0.649,0.157H9.408c-0.094-0.001-0.275-0.1-0.304-0.166V7.109h8.844v1.68h-4.422
		c-0.465,0-0.843,0.378-0.843,0.843v41.518c0,0.465,0.377,0.843,0.843,0.843h32.759c0.465,0,0.843-0.378,0.843-0.843V9.632
		c0-0.465-0.378-0.843-0.843-0.843h-3.867v-1.68h8.475v48.984c0,0.029,0,0.06,0.002,0.09C50.904,56.366,50.877,56.455,50.867,56.472
		z"/>
	<path fill="#231F20" d="M17.345,18.653c0,0.311,0.252,0.562,0.562,0.562h23.935c0.311,0,0.562-0.251,0.562-0.562
		s-0.252-0.562-0.562-0.562H17.907C17.597,18.092,17.345,18.343,17.345,18.653z"/>
	<path fill="#231F20" d="M41.842,24.71H17.907c-0.31,0-0.562,0.251-0.562,0.562s0.252,0.562,0.562,0.562h23.935
		c0.311,0,0.562-0.252,0.562-0.562S42.152,24.71,41.842,24.71z"/>
	<path fill="#231F20" d="M41.842,37.258H17.907c-0.31,0-0.562,0.252-0.562,0.562s0.252,0.562,0.562,0.562h23.935
		c0.311,0,0.562-0.251,0.562-0.562S42.152,37.258,41.842,37.258z"/>
	<path fill="#231F20" d="M41.842,30.939H17.907c-0.31,0-0.562,0.252-0.562,0.562c0,0.311,0.252,0.562,0.562,0.562h23.935
		c0.311,0,0.562-0.252,0.562-0.562C42.404,31.191,42.152,30.939,41.842,30.939z"/>
	<path fill="#231F20" d="M41.842,43.798H17.907c-0.31,0-0.562,0.251-0.562,0.562s0.252,0.562,0.562,0.562h23.935
		c0.311,0,0.562-0.251,0.562-0.562S42.152,43.798,41.842,43.798z"/>
</g>
</svg>
