<?xml version="1.0" encoding="utf-8"?>
<!-- Generator: Adobe Illustrator 16.0.3, SVG Export Plug-In . SVG Version: 6.00 Build 0)  -->
<!DOCTYPE svg PUBLIC "-//W3C//DTD SVG 1.1//EN" "http://www.w3.org/Graphics/SVG/1.1/DTD/svg11.dtd">
<svg version="1.1" id="Layer_1" xmlns="http://www.w3.org/2000/svg" xmlns:xlink="http://www.w3.org/1999/xlink" x="0px" y="0px"
	 width="60px" height="60px" viewBox="0 0 60 60" enable-background="new 0 0 60 60" xml:space="preserve">
<g>
	<path fill="#231F20" d="M57.889,0H13.406c-0.559,0-1.096,0.223-1.492,0.619L0.619,11.914C0.223,12.31,0,12.847,0,13.407v44.481
		C0,59.055,0.945,60,2.111,60h55.777C59.055,60,60,59.055,60,57.889V2.112C60,0.946,59.055,0,57.889,0z M55.777,55.777H4.223V14.282
		L14.281,4.223h41.496V55.777z"/>
	<path fill="#231F20" d="M30,43.227c6.617,0,12-5.384,12-12.001s-5.383-12-12-12s-12,5.383-12,12S23.383,43.227,30,43.227z
		 M30,21.337c5.453,0,9.889,4.436,9.889,9.889s-4.436,9.89-9.889,9.89s-9.889-4.437-9.889-9.89S24.547,21.337,30,21.337z"/>
	<path fill="#231F20" d="M30,35.673c2.451,0,4.447-1.995,4.447-4.447S32.451,26.779,30,26.779s-4.445,1.994-4.445,4.446
		S27.549,35.673,30,35.673z M30,28.187c1.676,0,3.039,1.363,3.039,3.039s-1.363,3.04-3.039,3.04s-3.039-1.364-3.039-3.04
		S28.324,28.187,30,28.187z"/>
	<path fill="#231F20" d="M19.055,15.091h18.404c0.389,0,0.705-0.315,0.705-0.704V7.053c0-0.389-0.316-0.704-0.705-0.704H19.055
		c-0.389,0-0.703,0.315-0.703,0.704v7.334C18.352,14.775,18.666,15.091,19.055,15.091z M19.76,7.756h16.996v5.927H19.76V7.756z"/>
</g>
</svg>
