<?xml version="1.0" encoding="utf-8"?>
<!-- Generator: Adobe Illustrator 16.0.3, SVG Export Plug-In . SVG Version: 6.00 Build 0)  -->
<!DOCTYPE svg PUBLIC "-//W3C//DTD SVG 1.1//EN" "http://www.w3.org/Graphics/SVG/1.1/DTD/svg11.dtd">
<svg version="1.1" id="Layer_1" xmlns="http://www.w3.org/2000/svg" xmlns:xlink="http://www.w3.org/1999/xlink" x="0px" y="0px"
	 width="60px" height="60px" viewBox="0 0 60 60" enable-background="new 0 0 60 60" xml:space="preserve">
<g>
	<path fill="#231F20" d="M56.697,0H3.303C1.482,0,0,1.481,0,3.303v53.394C0,58.518,1.482,60,3.303,60h53.394
		C58.519,60,60,58.518,60,56.696V3.303C60,1.481,58.519,0,56.697,0z M56.535,56.535H3.465V3.465h53.07V56.535z"/>
	<path fill="#231F20" d="M14.527,43.407c-2.336,0-4.236,1.9-4.236,4.235c0,2.336,1.9,4.235,4.236,4.235
		c2.335,0,4.235-1.899,4.235-4.235C18.762,45.308,16.862,43.407,14.527,43.407z M14.527,50.146c-1.38,0-2.503-1.123-2.503-2.503
		s1.123-2.503,2.503-2.503c1.38,0,2.502,1.123,2.502,2.503S15.907,50.146,14.527,50.146z"/>
	<path fill="#231F20" d="M29.959,43.407c-2.335,0-4.235,1.9-4.235,4.235c0,2.336,1.9,4.235,4.235,4.235s4.235-1.899,4.235-4.235
		C34.194,45.308,32.294,43.407,29.959,43.407z M29.959,50.146c-1.38,0-2.503-1.123-2.503-2.503s1.123-2.503,2.503-2.503
		s2.503,1.123,2.503,2.503S31.339,50.146,29.959,50.146z"/>
	<path fill="#231F20" d="M44.839,43.407c-2.336,0-4.236,1.9-4.236,4.235c0,2.336,1.9,4.235,4.236,4.235
		c2.335,0,4.234-1.899,4.234-4.235C49.073,45.308,47.174,43.407,44.839,43.407z M44.839,50.146c-1.381,0-2.504-1.123-2.504-2.503
		s1.123-2.503,2.504-2.503c1.38,0,2.502,1.123,2.502,2.503S46.219,50.146,44.839,50.146z"/>
	<path fill="#231F20" d="M11.711,34.394h1.95v1.586c0,0.479,0.388,0.866,0.866,0.866s0.866-0.388,0.866-0.866v-1.586h1.847
		c1.718,0,3.115-1.397,3.115-3.115c0-1.717-1.397-3.114-3.115-3.114h-1.847V9.437c0-0.478-0.388-0.865-0.866-0.865
		s-0.866,0.388-0.866,0.865v18.728h-1.95c-1.718,0-3.115,1.397-3.115,3.114C8.596,32.996,9.993,34.394,11.711,34.394z"/>
	<path fill="#231F20" d="M27.194,24.164h1.899v11.815c0,0.479,0.388,0.866,0.866,0.866s0.866-0.388,0.866-0.866V24.164h1.898
		c1.718,0,3.115-1.397,3.115-3.115s-1.397-3.114-3.115-3.114h-1.898V9.437c0-0.478-0.388-0.865-0.866-0.865
		s-0.866,0.388-0.866,0.865v8.498h-1.899c-1.717,0-3.115,1.396-3.115,3.114S25.477,24.164,27.194,24.164z"/>
	<path fill="#231F20" d="M42.073,31.075h1.898v4.904c0,0.479,0.388,0.866,0.866,0.866s0.866-0.388,0.866-0.866v-4.904h1.898
		c1.718,0,3.115-1.396,3.115-3.114s-1.397-3.115-3.115-3.115h-1.898V9.437c0-0.478-0.388-0.865-0.866-0.865
		s-0.866,0.388-0.866,0.865v15.409h-1.898c-1.718,0-3.115,1.397-3.115,3.115S40.355,31.075,42.073,31.075z"/>
</g>
</svg>
