<?xml version="1.0" encoding="utf-8"?>
<!-- Generator: Adobe Illustrator 16.0.3, SVG Export Plug-In . SVG Version: 6.00 Build 0)  -->
<!DOCTYPE svg PUBLIC "-//W3C//DTD SVG 1.1//EN" "http://www.w3.org/Graphics/SVG/1.1/DTD/svg11.dtd">
<svg version="1.1" id="Layer_1" xmlns="http://www.w3.org/2000/svg" xmlns:xlink="http://www.w3.org/1999/xlink" x="0px" y="0px"
	 width="60px" height="60px" viewBox="0 0 60 60" enable-background="new 0 0 60 60" xml:space="preserve">
<path fill="#231F20" d="M48.942,22.205c0.437,0,0.857-0.156,1.189-0.44l8.126-6.956c0.409-0.35,0.643-0.861,0.64-1.399
	c-0.003-0.538-0.242-1.047-0.655-1.393l-8.126-6.804c-0.329-0.276-0.745-0.427-1.174-0.427h-16.59V1.829
	c0-1.01-0.818-1.829-1.828-1.829c-1.011,0-1.829,0.819-1.829,1.829v2.957H11.058c-1.011,0-1.829,0.819-1.829,1.829v13.761
	c0,1.01,0.818,1.829,1.829,1.829h17.638v3.853H11.058c-0.43,0-0.845,0.151-1.175,0.428l-8.125,6.804
	c-0.413,0.345-0.652,0.854-0.655,1.392c-0.003,0.539,0.23,1.05,0.64,1.4l8.126,6.956c0.331,0.283,0.753,0.439,1.189,0.439h17.638
	v14.694c0,1.011,0.818,1.829,1.829,1.829c1.01,0,1.828-0.818,1.828-1.829V43.477h16.59c1.011,0,1.829-0.818,1.829-1.829V27.887
	c0-1.01-0.818-1.829-1.829-1.829h-16.59v-3.853H48.942z M47.113,39.818h-35.38l-5.972-5.112l5.96-4.99h35.392V39.818z M12.887,8.444
	h35.391l5.961,4.99l-5.972,5.112h-35.38V8.444z"/>
</svg>
