<?xml version="1.0" encoding="utf-8"?>
<!-- Generator: Adobe Illustrator 16.0.3, SVG Export Plug-In . SVG Version: 6.00 Build 0)  -->
<!DOCTYPE svg PUBLIC "-//W3C//DTD SVG 1.1//EN" "http://www.w3.org/Graphics/SVG/1.1/DTD/svg11.dtd">
<svg version="1.1" id="Layer_1" xmlns="http://www.w3.org/2000/svg" xmlns:xlink="http://www.w3.org/1999/xlink" x="0px" y="0px"
	 width="60px" height="60px" viewBox="0 0 60 60" enable-background="new 0 0 60 60" xml:space="preserve">
<path fill="#231F20" d="M59.8,43.687c0.024-0.043,0.05-0.085,0.069-0.13c0.021-0.047,0.034-0.097,0.05-0.146
	c0.015-0.048,0.032-0.094,0.043-0.142c0.01-0.046,0.013-0.094,0.02-0.141c0.007-0.056,0.015-0.111,0.015-0.168
	C59.997,42.949,60,42.938,60,42.926c-0.001-0.035-0.009-0.068-0.012-0.103c-0.004-0.057-0.007-0.112-0.018-0.168
	c-0.01-0.055-0.026-0.107-0.041-0.161c-0.013-0.041-0.023-0.083-0.039-0.124c-0.028-0.072-0.063-0.14-0.102-0.207
	c-0.008-0.016-0.013-0.031-0.021-0.046l-0.023-0.037c-0.009-0.013-0.016-0.026-0.024-0.039L49.598,25.659
	c-0.002-0.003-0.004-0.005-0.006-0.008c-0.045-0.072-0.099-0.139-0.154-0.202c-0.013-0.014-0.021-0.029-0.033-0.042
	c-0.096-0.1-0.207-0.183-0.327-0.255c-0.055-0.033-0.108-0.069-0.165-0.095c-0.025-0.012-0.055-0.018-0.081-0.028
	c-0.069-0.026-0.14-0.053-0.212-0.069c-0.003-0.001-0.007-0.002-0.011-0.003L36.499,22.28l-18.421-6.85
	c-0.029-0.011-0.061-0.015-0.09-0.023c-0.04-0.012-0.079-0.022-0.12-0.031c-0.088-0.02-0.175-0.029-0.263-0.033
	c-0.024-0.002-0.047-0.01-0.07-0.01h-0.003c-0.009,0-0.018,0.004-0.027,0.004c-0.119,0.003-0.237,0.017-0.352,0.046
	c-0.027,0.007-0.053,0.02-0.079,0.027c-0.086,0.027-0.17,0.061-0.251,0.102c-0.036,0.02-0.071,0.04-0.105,0.062
	c-0.071,0.044-0.138,0.094-0.201,0.148c-0.027,0.024-0.056,0.046-0.081,0.071c-0.084,0.084-0.161,0.175-0.225,0.278
	c-0.001,0.002-0.003,0.004-0.005,0.006L0.229,42.157c-0.294,0.479-0.307,1.08-0.032,1.572c0.273,0.492,0.791,0.797,1.354,0.8
	l32.177,0.138c0.002,0,0.004,0,0.006,0s0.007,0,0.011,0l0,0l24.707-0.173c0.005,0,0.011-0.001,0.016-0.001
	c0.087-0.002,0.175-0.013,0.261-0.028c0.024-0.005,0.048-0.01,0.071-0.015c0.081-0.02,0.16-0.043,0.238-0.076
	c0.008-0.003,0.017-0.005,0.024-0.008c0.067-0.03,0.134-0.064,0.198-0.104c0.011-0.006,0.018-0.015,0.027-0.021
	c0.048-0.031,0.093-0.068,0.138-0.105c0.035-0.029,0.072-0.057,0.105-0.088c0.035-0.035,0.066-0.076,0.099-0.114
	s0.067-0.075,0.096-0.117C59.754,43.775,59.775,43.73,59.8,43.687z M35.722,25.3l11.572,2.558l8.366,13.54L34.6,41.544
	l-13.354-21.61l14.269,5.305C35.582,25.264,35.65,25.284,35.722,25.3z M15.893,22.555l-2.852,18.907l-8.709-0.037L15.893,22.555z
	 M16.799,26.991l0.062,14.486l-2.246-0.009L16.799,26.991z M18.42,41.485l-0.088-20.34l12.602,20.393L18.42,41.485z"/>
</svg>
